<svg width="104" height="104" viewBox="0 0 104 104" fill="none" xmlns="http://www.w3.org/2000/svg">
<g clip-path="url(#clip0_4_101)">
<path d="M52 104C23.3245 104 0 80.6755 0 52C0 23.3245 23.3245 0 52 0C80.6755 0 104 23.3245 104 52C104 80.6755 80.6755 104 52 104ZM52 1.67032C24.2547 1.68032 1.68032 24.2547 1.68032 52C1.68032 79.7453 24.2547 102.33 52.01 102.33C79.7653 102.33 102.34 79.7553 102.34 52C102.34 24.2447 79.7553 1.68032 52 1.68032V1.67032Z" fill="url(#paint0_linear_4_101)"/>
<path d="M50.9202 81.9057C52.9906 81.9057 54.651 80.2454 54.651 78.175C54.651 76.1046 52.9906 74.4443 50.9202 74.4443C48.8498 74.4443 47.1895 76.1046 47.1895 78.175C47.1895 80.2454 48.7698 81.9057 50.9202 81.9057ZM48.6798 66.1427H53.0807C53.0807 53.4503 69.1738 49.5495 69.1738 37.0271C69.1738 27.2352 61.3723 22.0942 52.0805 22.0942C44.449 22.0942 37.3976 25.7449 34.8271 33.0463L38.5579 35.1167C40.3782 29.3056 45.6092 26.3251 52.0805 26.3251C59.6319 26.3251 64.6929 30.0558 64.6929 37.0271C64.6929 48.0592 48.6798 51.5399 48.6798 66.1427Z" fill="url(#paint1_linear_4_101)"/>
</g>
<defs>
<linearGradient id="paint0_linear_4_101" x1="6.08117" y1="6.08117" x2="110.791" y2="110.791" gradientUnits="userSpaceOnUse">
<stop stop-color="#F9FA50"/>
<stop offset="1" stop-color="#29FC4B"/>
</linearGradient>
<linearGradient id="paint1_linear_4_101" x1="34.8271" y1="52" x2="69.1738" y2="52" gradientUnits="userSpaceOnUse">
<stop stop-color="#F9FA50"/>
<stop offset="1" stop-color="#29FC4B"/>
</linearGradient>
<clipPath id="clip0_4_101">
<rect width="104" height="104" fill="white"/>
</clipPath>
</defs>
</svg>
